# xmcd CD database file
#
# Track frame offsets:
#	183
#	19473
#	36035
#	48658
#	63533
#	80430
#	93850
#	111298
#	131293
#	149865
#
# Disc length: 2193 seconds
#
# Revision: 0
# Processed by: cddbd v1.5.1PL2 Copyright (c) Steve Scherf et al.
# Submitted via: CDex 1.51
#
DISCID=8e088f0a
DTITLE=Teddy Wilson - with Eiji Kitamura
DYEAR=1900
DGENRE=Jazz
TTITLE0=Sunny side
TTITLE1=Time on my hands
TTITLE2=I can't get started
TTITLE3=I've found a new baby
TTITLE4=Stars fell on alabama
TTITLE5=Whispering
TTITLE6=Dream a little dream of me
TTITLE7=Body and soul
TTITLE8=After you've gone
TTITLE9=Someday sweetheart
EXTD=
EXTT0=
EXTT1=
EXTT2=
EXTT3=
EXTT4=
EXTT5=
EXTT6=
EXTT7=
EXTT8=
EXTT9=
PLAYORDER=
